# xmcd CD database file
#
# Track frame offsets:
#	150
#	10125
#	23515
#	35117
#	47187
#	58864
#	69180
#	81382
#	92930
#	105477
#	117967
#	130812
#	142212
#	153087
#	163052
#	174437
#	187475
#	198822
#	209642
#	220715
#	230884
#	246605
#
# Disc length: 3440 seconds
#
# Revision: 2
# Processed by: cddbd v1.5.2PL0 Copyright (c) Steve Scherf et al.
# Submitted via: CDex 2.21
#
DISCID=4a0d6e16
DTITLE=John Lee Hooker - Boogie Chillun'
DYEAR=1960
DGENRE=Blues
TTITLE0=Dimples
TTITLE1=Every Night
TTITLE2=Little Wheel
TTITLE3=You Can Lead Me Baby
TTITLE4=I Love You Honey
TTITLE5=Maudie
TTITLE6=I'm In The Mood
TTITLE7=Boogie Chillun'
TTITLE8=Hobo Blues
TTITLE9=Crawlin' Kingsnake
TTITLE10=Drive Me Away
TTITLE11=Solid Sender
TTITLE12=No Shoes
TTITLE13=Want Ad Blues
TTITLE14=Will The Circle Be Unbroken
TTITLE15=I'm Goin' Upstairs
TTITLE16=Boom Boom
TTITLE17=Bottle Up And Go
TTITLE18=This Is Hip
TTITLE19=Big Legs, Tight Skirt
TTITLE20=It Serves Me Right To Suffer
TTITLE21=Your Baby Ain't Sweet Like Mine
EXTD=YEAR: 1960
EXTT0=
EXTT1=
EXTT2=
EXTT3=
EXTT4=
EXTT5=
EXTT6=
EXTT7=
EXTT8=
EXTT9=
EXTT10=
EXTT11=
EXTT12=
EXTT13=
EXTT14=
EXTT15=
EXTT16=
EXTT17=
EXTT18=
EXTT19=
EXTT20=
EXTT21=
PLAYORDER=
